<?xml version="1.0" standalone="no"?>
<!DOCTYPE svg PUBLIC "-//W3C//DTD SVG 20010904//EN"
 "http://www.w3.org/TR/2001/REC-SVG-20010904/DTD/svg10.dtd">
<svg version="1.0" xmlns="http://www.w3.org/2000/svg"
 width="792.000000pt" height="712.000000pt" viewBox="0 0 792.000000 712.000000"
 preserveAspectRatio="xMidYMid meet">
<metadata>
Created by potrace 1.16, written by Peter Selinger 2001-2019
</metadata>
<g transform="translate(0.000000,712.000000) scale(0.100000,-0.100000)"
fill="#000000" stroke="none">
<path d="M3345 7102 l-1150 -3 -110 -166 c-60 -91 -121 -179 -134 -195 -14
-17 -20 -33 -15 -38 5 -5 203 -10 439 -12 407 -4 434 -5 510 -26 201 -56 357
-173 428 -322 20 -41 39 -85 42 -97 l6 -23 -583 0 -583 0 -127 -189 c-71 -104
-128 -197 -128 -206 0 -15 60 -16 710 -13 l711 3 -6 -25 c-38 -153 -204 -319
-392 -395 -167 -67 -300 -85 -645 -85 l-258 0 0 -199 0 -200 153 -163 c84 -90
267 -287 407 -438 140 -151 354 -381 475 -510 121 -130 285 -306 364 -393
l145 -157 353 0 c248 0 353 3 353 11 0 6 -8 18 -19 27 -10 10 -121 127 -247
262 -126 135 -339 362 -474 505 -135 143 -376 400 -537 572 l-292 311 82 7
c425 34 743 194 927 465 73 107 160 316 160 384 l0 26 166 2 166 3 129 190
c71 105 129 193 129 198 0 4 -132 7 -294 7 l-293 0 -6 49 c-12 102 -77 259
-151 366 l-42 60 257 -3 c200 -2 260 0 269 10 36 42 260 383 258 392 -2 8
-330 10 -1153 8z"/>
<path d="M295 3080 c-3 -5 -15 -10 -26 -10 -49 0 -209 -112 -209 -146 0 -8 -3
-14 -8 -14 -4 0 -15 -22 -25 -49 -16 -45 -17 -139 -17 -1319 0 -1147 2 -1273
16 -1308 40 -96 113 -165 220 -206 59 -23 60 -23 614 -23 l555 0 60 23 c90 35
151 87 205 176 22 37 25 54 28 173 2 81 8 131 13 127 6 -3 47 -12 92 -20 81
-15 205 -38 362 -68 85 -16 228 -43 410 -77 61 -11 144 -27 185 -35 41 -8 125
-23 185 -33 136 -24 304 -54 455 -80 63 -12 158 -28 211 -36 53 -8 103 -17
110 -20 8 -3 64 -12 124 -21 61 -8 169 -24 240 -35 202 -29 334 -39 395 -29
186 29 432 133 900 378 58 30 119 62 135 72 17 10 62 34 100 55 201 109 740
423 1083 631 117 71 257 156 311 189 164 99 188 114 381 233 373 230 400 252
472 387 l43 80 0 137 c0 96 -4 141 -12 149 -7 7 -13 20 -13 28 0 37 -118 189
-185 238 -76 55 -169 94 -275 113 -112 20 -149 17 -310 -19 -44 -10 -46 -9
-85 29 -52 50 -180 119 -259 138 -84 21 -244 20 -326 -1 -36 -10 -127 -49
-202 -87 -76 -39 -144 -70 -151 -70 -7 0 -26 14 -43 31 -40 42 -171 107 -258
127 -90 21 -232 21 -311 0 -70 -19 -123 -42 -220 -96 -87 -48 -326 -178 -380
-207 -22 -12 -94 -51 -160 -87 -251 -137 -273 -148 -291 -148 -11 0 -82 16
-159 36 -77 19 -165 42 -195 49 -30 8 -91 23 -135 35 -44 11 -116 30 -160 41
-44 11 -107 27 -140 35 -33 8 -97 24 -142 35 -46 10 -120 28 -165 38 -46 11
-112 27 -148 36 -36 9 -106 24 -156 34 -50 10 -95 20 -100 23 -5 4 -53 11
-107 18 -99 12 -252 2 -302 -20 -11 -4 -60 -15 -110 -23 -49 -8 -121 -23 -160
-32 -38 -9 -108 -24 -155 -34 -47 -9 -92 -20 -100 -24 -8 -3 -49 -13 -90 -22
-41 -8 -103 -21 -137 -28 l-61 -14 -4 156 c-3 150 -5 158 -32 206 -51 90 -105
133 -213 171 l-68 24 -547 0 c-354 0 -549 -4 -553 -10z m1103 -272 c9 -9 12
-302 12 -1257 0 -686 -4 -1251 -8 -1256 -23 -32 -63 -35 -541 -35 -551 0 -545
-1 -556 72 -3 24 -5 586 -3 1249 3 1004 5 1209 17 1222 12 15 62 17 540 17
397 0 530 -3 539 -12z m4400 -197 c24 -12 42 -24 40 -25 -4 -4 -232 -124 -273
-144 -56 -28 -115 -73 -115 -87 0 -8 -4 -15 -10 -15 -5 0 -10 -17 -10 -38 0
-52 52 -113 110 -131 38 -11 48 -10 99 10 31 13 94 44 141 69 47 26 144 77
215 115 183 96 465 243 494 258 14 7 66 12 125 12 84 0 109 -4 148 -22 25 -12
49 -26 52 -31 3 -5 -41 -32 -97 -61 -56 -29 -133 -70 -172 -91 -95 -51 -235
-124 -385 -203 -69 -36 -158 -82 -198 -103 -41 -22 -90 -53 -110 -70 -33 -28
-37 -37 -37 -80 0 -72 33 -109 117 -134 32 -10 84 7 171 54 34 18 125 66 202
106 77 40 163 85 190 100 28 15 100 54 160 85 61 32 153 80 205 108 52 28 127
66 165 84 39 19 81 41 95 49 83 49 115 58 205 58 79 1 96 -2 143 -27 126 -66
173 -160 151 -299 -18 -109 -46 -133 -469 -388 -47 -28 -116 -71 -155 -95 -38
-24 -110 -68 -160 -98 -49 -30 -172 -104 -272 -165 -155 -94 -239 -144 -333
-197 -10 -6 -24 -16 -31 -22 -8 -6 -133 -79 -279 -162 -146 -83 -272 -156
-280 -161 -8 -6 -25 -15 -38 -20 -13 -6 -62 -33 -110 -61 -154 -91 -575 -305
-747 -379 -11 -5 -40 -18 -65 -29 -25 -11 -59 -23 -75 -27 -17 -4 -34 -10 -40
-14 -5 -4 -36 -13 -68 -20 -45 -9 -92 -9 -205 0 -81 7 -151 15 -157 18 -5 3
-68 14 -140 24 -71 9 -168 24 -215 32 -47 8 -139 24 -205 35 -126 21 -299 52
-425 76 -41 7 -127 23 -190 34 -164 28 -329 58 -450 81 -58 11 -152 29 -210
39 -58 11 -143 27 -190 36 -47 9 -128 25 -180 34 -52 10 -102 20 -110 23 -8 4
-36 9 -62 13 l-48 6 0 743 0 743 93 22 c50 13 119 29 152 36 33 8 101 23 150
35 254 60 268 63 495 108 47 9 105 16 130 16 43 -1 200 -26 242 -40 11 -3 59
-14 106 -25 87 -18 133 -29 292 -69 47 -12 121 -30 165 -41 44 -11 105 -26
135 -34 54 -13 146 -36 305 -76 95 -23 163 -41 265 -68 70 -18 103 -27 300
-80 41 -11 86 -23 100 -27 379 -98 416 -110 510 -165 91 -54 160 -124 160
-163 0 -8 5 -18 10 -21 12 -8 13 -118 1 -143 -4 -9 -17 -35 -27 -57 -30 -62
-103 -127 -175 -155 -57 -22 -77 -25 -184 -23 -66 1 -147 7 -180 12 -33 6
-132 18 -220 26 -257 24 -436 43 -500 54 -33 5 -100 13 -150 16 -49 4 -106 11
-125 15 -19 5 -103 15 -186 21 -170 14 -195 9 -239 -43 -45 -53 -27 -145 34
-181 35 -20 108 -34 286 -52 83 -9 227 -25 320 -35 94 -11 233 -26 310 -35 77
-8 174 -20 215 -25 89 -12 283 -29 431 -37 214 -12 404 63 540 212 43 48 109
146 109 164 0 4 8 23 17 42 25 51 25 246 -1 314 -68 179 -239 321 -481 400
-44 14 -89 30 -100 35 -11 5 -45 14 -75 20 -30 6 -64 15 -75 20 -11 5 -26 10
-33 12 -7 2 31 27 85 56 107 57 290 157 393 214 130 71 216 116 235 121 11 3
63 4 115 3 74 -3 105 -8 138 -25z"/>
</g>
</svg>
